# xmcd
# Copyright (C) 1995-1998 Ti Kan
#
# Track frame offsets:
#       150
#       18706
#       21841
#       35409
#       60519
#       84759
#       87218
#       105255
#       106890
#       123818
#       130374
#       144054
#       151637
#
# Disc length: 2257 seconds
#
# Revision: 0
# Processed by: cddbd v1.5.2PL0 Copyright (c) Steve Scherf et al.
# Submitted via: CD-Import v1.0
#
DISCID=8b08cf0d
DTITLE=Jurassic 5 - Jurassic 5 Lp
DYEAR=1998
DGENRE=
TTITLE0=In The Flesh
TTITLE1=Quality Control Part Ii
TTITLE2=Jayou
TTITLE3=Lesson 6: The Lecture
TTITLE4=Concrete Schoolyard
TTITLE5=Setup
TTITLE6=Action Satisfaction
TTITLE7=Sausage Gut
TTITLE8=Improvise
TTITLE9=Blacktop Beat
TTITLE10=Without A Doubt
TTITLE11=Lesson 6 (Reprise)
TTITLE12=Action Satisfaction (Dub)
EXTD=
EXTT0=
EXTT1=
EXTT2=
EXTT3=
EXTT4=
EXTT5=
EXTT6=
EXTT7=
EXTT8=
EXTT9=
EXTT10=
EXTT11=
EXTT12=
PLAYORDER=
